<?xml version="1.0" encoding="UTF-8" standalone="no"?>
<!-- Created with Inkscape (http://www.inkscape.org/) -->

<svg
   xmlns:dc="http://purl.org/dc/elements/1.1/"
   xmlns:cc="http://creativecommons.org/ns#"
   xmlns:rdf="http://www.w3.org/1999/02/22-rdf-syntax-ns#"
   xmlns:svg="http://www.w3.org/2000/svg"
   xmlns="http://www.w3.org/2000/svg"
   xmlns:sodipodi="http://sodipodi.sourceforge.net/DTD/sodipodi-0.dtd"
   xmlns:inkscape="http://www.inkscape.org/namespaces/inkscape"
   sodipodi:docname="spectroscopyx-logo-black-text.svg"
   inkscape:version="0.92.1 r15371"
   id="svg8"
   version="1.1"
   viewBox="0 0 210 297"
   height="297mm"
   width="210mm"
   inkscape:export-filename="/home/pawel/Programming/python/spectroscopyx-github-io/logo/spectroscopyx-logo-black-text.svg.png"
   inkscape:export-xdpi="20.519903"
   inkscape:export-ydpi="20.519903">
  <sodipodi:namedview
     inkscape:measure-end="2041.84,442.634"
     inkscape:measure-start="75.0282,611.757"
     inkscape:window-maximized="1"
     inkscape:window-y="0"
     inkscape:window-x="0"
     inkscape:window-height="1015"
     inkscape:window-width="1920"
     showborder="false"
     showgrid="false"
     inkscape:current-layer="layer1"
     inkscape:document-units="mm"
     inkscape:cy="1445.1411"
     inkscape:cx="2107.7521"
     inkscape:zoom="0.12374369"
     inkscape:pageshadow="2"
     inkscape:pageopacity="1"
     borderopacity="1.0"
     bordercolor="#666666"
     pagecolor="#000000"
     id="base" />
  <defs
     id="defs2">
    <inkscape:path-effect
       effect="powerstroke"
       id="path-effect52"
       is_visible="true"
       offset_points="0.2,2.1907754 | 11.650443,5.6792932 | 22,10.320395"
       sort_points="true"
       interpolator_type="CubicBezierFit"
       interpolator_beta="0.2"
       start_linecap_type="butt"
       linejoin_type="extrp_arc"
       miter_limit="4"
       end_linecap_type="round" />
    <inkscape:path-effect
       effect="powerstroke"
       id="path-effect50"
       is_visible="true"
       offset_points="0.2,2.1907754 | 10.725754,4.8627697 | 21,10.493767"
       sort_points="true"
       interpolator_type="CubicBezierFit"
       interpolator_beta="0.2"
       start_linecap_type="butt"
       linejoin_type="extrp_arc"
       miter_limit="4"
       end_linecap_type="round" />
    <inkscape:path-effect
       effect="powerstroke"
       id="path-effect48"
       is_visible="true"
       offset_points="0.2,2.1907754 | 10.653063,4.7292756 | 21,12.559973"
       sort_points="true"
       interpolator_type="CubicBezierFit"
       interpolator_beta="0.2"
       start_linecap_type="butt"
       linejoin_type="extrp_arc"
       miter_limit="4"
       end_linecap_type="round" />
    <inkscape:path-effect
       effect="powerstroke"
       id="path-effect46"
       is_visible="true"
       offset_points="0.2,2.1907754 | 10.662186,4.703305 | 21,12.77739"
       sort_points="true"
       interpolator_type="CubicBezierFit"
       interpolator_beta="0.2"
       start_linecap_type="butt"
       linejoin_type="extrp_arc"
       miter_limit="4"
       end_linecap_type="round" />
    <inkscape:path-effect
       effect="powerstroke"
       id="path-effect44"
       is_visible="true"
       offset_points="0.2,2.1907754 | 10.577553,4.6028029 | 21,11.79957"
       sort_points="true"
       interpolator_type="CubicBezierFit"
       interpolator_beta="0.2"
       start_linecap_type="butt"
       linejoin_type="extrp_arc"
       miter_limit="4"
       end_linecap_type="round" />
    <inkscape:path-effect
       effect="powerstroke"
       id="path-effect42"
       is_visible="true"
       offset_points="0.2,2.1907754 | 10.864517,5.750514 | 21,12.884691"
       sort_points="true"
       interpolator_type="CubicBezierFit"
       interpolator_beta="0.2"
       start_linecap_type="butt"
       linejoin_type="extrp_arc"
       miter_limit="4"
       end_linecap_type="round" />
    <inkscape:path-effect
       effect="powerstroke"
       id="path-effect40"
       is_visible="true"
       offset_points="0.2,2.1907754 | 10.516331,4.5389607 | 21,13.297355"
       sort_points="true"
       interpolator_type="CubicBezierFit"
       interpolator_beta="0.2"
       start_linecap_type="butt"
       linejoin_type="extrp_arc"
       miter_limit="4"
       end_linecap_type="round" />
    <inkscape:path-effect
       effect="bend_path"
       id="path-effect6763"
       is_visible="true"
       bendpath="m 19.85122,135.0223 163.65622,-3.96875 254.70309,116.47349"
       prop_scale="1"
       scale_y_rel="false"
       vertical="false"
       bendpath-nodetypes="ccc" />
    <inkscape:path-effect
       effect="bend_path"
       id="path-effect6761"
       is_visible="true"
       bendpath="M 19.85122,135.13922 179.87239,122.57755 470.77481,229.94719"
       prop_scale="1"
       scale_y_rel="false"
       vertical="false"
       bendpath-nodetypes="ccc" />
    <inkscape:path-effect
       effect="bend_path"
       id="path-effect6759"
       is_visible="true"
       bendpath="m 19.85122,108.34295 h 153.6067 l 330.32576,85.23919"
       prop_scale="1"
       scale_y_rel="false"
       vertical="false"
       bendpath-nodetypes="ccc" />
    <inkscape:path-effect
       effect="bend_path"
       id="path-effect6757"
       is_visible="true"
       bendpath="M 19.85122,82.456107 H 164.63803 L 509.02931,192.8509"
       prop_scale="1"
       scale_y_rel="false"
       vertical="false"
       bendpath-nodetypes="ccc" />
    <inkscape:path-effect
       effect="bend_path"
       id="path-effect6755"
       is_visible="true"
       bendpath="M 19.85122,95.211682 H 173.49107 L 469.58947,232.95507"
       prop_scale="1"
       scale_y_rel="false"
       vertical="false"
       bendpath-nodetypes="ccc" />
    <inkscape:path-effect
       effect="bend_path"
       id="path-effect6753"
       is_visible="true"
       bendpath="M 19.85122,98.795407 166.7751,105.91875 524.69726,208.67143"
       prop_scale="1"
       scale_y_rel="false"
       vertical="false"
       bendpath-nodetypes="ccc" />
    <inkscape:path-effect
       effect="bend_path"
       id="path-effect6751"
       is_visible="true"
       bendpath="M 19.85122,135.13922 H 188.15775 L 396.21798,262.98689"
       prop_scale="1"
       scale_y_rel="false"
       vertical="false"
       bendpath-nodetypes="ccc" />
    <inkscape:perspective
       sodipodi:type="inkscape:persp3d"
       inkscape:vp_x="-660.79574 : 93.085521 : 1"
       inkscape:vp_y="0 : 1207.7756 : 0"
       inkscape:vp_z="1851.8419 : 93.085521 : 1"
       inkscape:persp3d-origin="595.52306 : 33.300631 : 1"
       id="perspective4519" />
    <filter
       inkscape:collect="always"
       style="color-interpolation-filters:sRGB"
       id="filter8539"
       x="-0.51861"
       width="2.03722"
       y="-0.5872505"
       height="2.174501">
      <feGaussianBlur
         inkscape:collect="always"
         stdDeviation="9.7828442"
         id="feGaussianBlur8541" />
    </filter>
    <filter
       style="color-interpolation-filters:sRGB"
       x="-0.25"
       width="1.5"
       y="-0.25"
       height="1.5"
       inkscape:menu="Non realistic 3D shaders"
       inkscape:menu-tooltip="Satiny glass effect"
       inkscape:label="Frosted Glass"
       id="filter1184">
      <feGaussianBlur
         in="SourceGraphic"
         result="result8"
         stdDeviation="5"
         id="feGaussianBlur1164" />
      <feComposite
         result="result18"
         operator="xor"
         in2="result8"
         in="SourceGraphic"
         id="feComposite1166" />
      <feComposite
         in2="result18"
         result="result16"
         operator="arithmetic"
         k2="0.5"
         k1="1"
         in="result8"
         id="feComposite1168" />
      <feComposite
         in="result16"
         operator="atop"
         result="result6"
         in2="result8"
         id="feComposite1170" />
      <feOffset
         in="result6"
         result="result17"
         id="feOffset1172" />
      <feDisplacementMap
         result="result4"
         scale="100"
         yChannelSelector="A"
         xChannelSelector="A"
         in="result17"
         in2="result16"
         id="feDisplacementMap1174" />
      <feComposite
         k3="1"
         in="result17"
         operator="arithmetic"
         result="result2"
         in2="result4"
         id="feComposite1176" />
      <feComposite
         operator="out"
         in="result2"
         result="fbSourceGraphic"
         in2="result17"
         id="feComposite1178" />
      <feComposite
         result="result14"
         operator="over"
         in2="fbSourceGraphic"
         in="fbSourceGraphic"
         id="feComposite1180" />
      <feComposite
         in="result14"
         operator="in"
         in2="SourceGraphic"
         result="result15"
         id="feComposite1182" />
    </filter>
    <filter
       style="color-interpolation-filters:sRGB"
       x="-0.25"
       width="1.5"
       y="-0.25"
       height="1.5"
       inkscape:menu="Non realistic 3D shaders"
       inkscape:menu-tooltip="Satiny glass effect"
       inkscape:label="Frosted Glass"
       id="filter1208">
      <feGaussianBlur
         in="SourceGraphic"
         result="result8"
         stdDeviation="5"
         id="feGaussianBlur1188" />
      <feComposite
         result="result18"
         operator="xor"
         in2="result8"
         in="SourceGraphic"
         id="feComposite1190" />
      <feComposite
         in2="result18"
         result="result16"
         operator="arithmetic"
         k2="0.5"
         k1="1"
         in="result8"
         id="feComposite1192" />
      <feComposite
         in="result16"
         operator="atop"
         result="result6"
         in2="result8"
         id="feComposite1194" />
      <feOffset
         in="result6"
         result="result17"
         id="feOffset1196" />
      <feDisplacementMap
         result="result4"
         scale="100"
         yChannelSelector="A"
         xChannelSelector="A"
         in="result17"
         in2="result16"
         id="feDisplacementMap1198" />
      <feComposite
         k3="1"
         in="result17"
         operator="arithmetic"
         result="result2"
         in2="result4"
         id="feComposite1200" />
      <feComposite
         operator="out"
         in="result2"
         result="fbSourceGraphic"
         in2="result17"
         id="feComposite1202" />
      <feComposite
         result="result14"
         operator="over"
         in2="fbSourceGraphic"
         in="fbSourceGraphic"
         id="feComposite1204" />
      <feComposite
         in="result14"
         operator="in"
         in2="SourceGraphic"
         result="result15"
         id="feComposite1206" />
    </filter>
  </defs>
  <metadata
     id="metadata5">
    <rdf:RDF>
      <cc:Work
         rdf:about="">
        <dc:format>image/svg+xml</dc:format>
        <dc:type
           rdf:resource="http://purl.org/dc/dcmitype/StillImage" />
        <dc:title />
      </cc:Work>
    </rdf:RDF>
  </metadata>
  <g
     inkscape:label="Layer 1"
     inkscape:groupmode="layer"
     id="layer1">
    <path
       style="opacity:0.25;fill:#edfeff;stroke:#000000;stroke-width:1;stroke-miterlimit:4;stroke-dasharray:none;fill-opacity:0.78217822"
       inkscape:transform-center-y="-44.019019"
       inkscape:transform-center-x="2.8561165e-06"
       d="M -58.874845,259.57606 13.462922,134.28338 85.800693,8.9906921 158.13845,134.28338 l 72.33777,125.29269 -144.675528,0 z"
       inkscape:randomized="0"
       inkscape:rounded="0"
       inkscape:flatsided="false"
       sodipodi:arg2="3.6651914"
       sodipodi:arg1="2.6179939"
       sodipodi:r2="83.528458"
       sodipodi:r1="167.05692"
       sodipodi:cy="176.04761"
       sodipodi:cx="85.80069"
       sodipodi:sides="3"
       id="path4549"
       sodipodi:type="star"
       transform="matrix(1.0519353,0,0,1.0539887,3.1034385,-5.7243752)" />
    <path
       sodipodi:type="star"
       id="path3682"
       sodipodi:sides="3"
       sodipodi:cx="114.90476"
       sodipodi:cy="176.04761"
       sodipodi:r1="167.05692"
       sodipodi:r2="83.528458"
       sodipodi:arg1="2.6179939"
       sodipodi:arg2="3.6651914"
       inkscape:flatsided="false"
       inkscape:rounded="0"
       inkscape:randomized="0"
       d="M -29.770772,259.57606 42.566995,134.28338 114.90477,8.9906921 187.24253,134.28338 l 72.33776,125.29269 -144.67553,0 z"
       inkscape:transform-center-x="1.8857142e-06"
       inkscape:transform-center-y="-41.764232"
       style="stroke-width:1;fill:#edfeff;stroke:#000000;stroke-miterlimit:4;stroke-dasharray:none;opacity:0.25;fill-opacity:0" />
    <path
       style="fill:none;stroke:#000000;stroke-width:0.26458332px;stroke-linecap:butt;stroke-linejoin:miter;stroke-opacity:1"
       d="m -58.829087,267.86586 29.058316,-8.2898"
       id="path4551"
       inkscape:connector-curvature="0" />
    <path
       style="fill:none;stroke:#000000;stroke-width:0.26458332px;stroke-linecap:butt;stroke-linejoin:miter;stroke-opacity:1"
       d="M 93.360215,3.7517128 114.90476,8.9906921"
       id="path4553"
       inkscape:connector-curvature="0" />
    <path
       style="fill:none;stroke:#000000;stroke-width:0.26458332px;stroke-linecap:butt;stroke-linejoin:miter;stroke-opacity:1"
       d="m 245.54951,267.86586 14.03078,-8.2898"
       id="path4555"
       inkscape:connector-curvature="0" />
    <rect
       style="opacity:0.75;fill:#ffe680;stroke:#ffeeaa;stroke-width:6.4620862;stroke-miterlimit:4;stroke-dasharray:none"
       id="rect4597"
       width="318.99261"
       height="22.07477"
       x="-197.70894"
       y="192.16368"
       transform="matrix(0.93973875,-0.34189337,-0.4898103,0.87182904,0,0)" />
    <path
       id="path6495"
       title="sin(4*x)"
       d="m 19.120073,137.03074 c 8.5179,-4.53099 16.438697,-8.48677 24.526296,-10.29822 8.234027,-1.84426 16.593305,-1.32067 24.870641,0.63341 8.501473,2.00708 17.419984,5.47005 25.92146,7.47713 8.83253,2.10596 17.7325,2.64383 26.77886,0.70475 8.88363,-1.9041 17.80602,-6.10946 26.7336,-10.37162 5.8863,-2.79005 11.90903,-5.54873 17.89499,-7.53862 2.41719,-0.22857 4.86429,-0.31167 7.31175,-0.17705 7.77181,0.18996 15.69032,2.53827 23.91627,6.7164 8.12882,4.12979 16.6008,9.86436 24.72962,13.99415 8.27399,4.22607 17.2858,7.26922 26.93983,7.56042 4.76339,0.14393 9.55679,-0.36372 14.38,-1.20902 4.42312,-0.77518 8.84805,-1.82825 13.15308,-2.87231 8.99062,-2.17848 17.25286,-3.97105 25.12073,-3.63343 7.66068,0.32999 15.25203,2.79849 22.88475,6.8255 8.23676,4.3465 16.22787,9.97134 24.46463,14.31784 8.81404,4.64351 18.27361,7.85003 28.45373,8.29335 9.95131,0.43471 20.06609,-1.7381 29.1169,-3.72847 9.31066,-2.0422 17.33072,-3.5752 24.72204,-3.13754 7.02852,0.4193 14.02567,2.74867 21.17915,6.60612 7.19263,3.87696 15.23801,9.61866 24.31155,14.41271 l -0.0129,-0.006 c 9.25035,4.89468 19.4102,8.35103 30.54827,8.83549 10.73641,0.46884 21.61449,-1.81587 30.80748,-3.77717 a 13.297355,13.297355 90 0 0 -6.29399,-25.8392 c -9.44764,2.59717 -17.07272,4.55912 -24.0933,4.74812 -6.62843,0.18127 -13.44494,-1.39274 -20.7795,-4.66169 0.56202,0.25049 1.12722,0.49378 1.69545,0.72982 -0.57227,-0.23881 -1.14176,-0.48422 -1.70837,-0.73617 -7.38601,-3.28437 -15.86188,-8.5468 -25.12853,-12.74812 -9.47539,-4.30381 -19.58362,-7.0488 -30.22169,-6.90312 -10.28682,0.14274 -20.47625,2.97005 -29.33273,5.52773 -9.10994,2.63644 -17.06396,4.8038 -24.5818,4.99575 -7.30458,0.18811 -14.73775,-1.62443 -22.52838,-5.14411 -7.78939,-3.50854 -16.30496,-8.81434 -25.17949,-12.87929 -9.03008,-4.14131 -18.44491,-6.72769 -28.17822,-6.62781 -9.53165,0.0986 -19.02274,2.72165 -27.73196,5.23077 -4.25311,1.22631 -8.36752,2.38237 -12.42453,3.26161 -4.40117,0.95383 -8.54722,1.54208 -12.53897,1.58021 -8.03235,0.0772 -15.93273,-2.16754 -23.70804,-5.82288 -8.26947,-3.87484 -16.76983,-9.29324 -25.10714,-13.2337 -8.99381,-4.25297 -17.90292,-6.69048 -26.80882,-6.681 -2.85694,0.08 -5.64021,0.39138 -8.29974,0.82504 -0.1113,0.0182 -0.22255,0.0365 -0.33377,0.0552 -0.064,0.0227 -0.12795,0.0455 -0.19189,0.0683 -6.36845,2.27469 -12.70145,5.34766 -18.62281,8.28627 -8.95623,4.41435 -17.33368,8.44039 -25.55886,10.28092 -8.21102,1.83732 -16.40516,1.43335 -24.744993,-0.51196 -8.496993,-1.9741 -17.448714,-5.41726 -25.943769,-7.3909 -8.748537,-2.04671 -17.800767,-2.6431 -26.839999,-0.61427 -8.733981,1.9603 -17.133589,6.19203 -25.624587,10.70871 z"
       style="opacity:0.753;fill:#ff0000;fill-rule:nonzero;stroke:none;stroke-width:4.38155079;stroke-miterlimit:4;stroke-dasharray:none"
       inkscape:connector-curvature="0"
       inkscape:path-effect="#path-effect6753;#path-effect40"
       inkscape:original-d="m 19.85122,135.13922 c 8.924784,-4.74165 17.867407,-9.34517 27.10693,-11.64962 9.239533,-2.30446 18.788089,-2.21606 28.537442,-0.57284 9.749344,1.64323 19.671844,4.62718 29.421538,6.273 9.74969,1.64584 19.29736,1.72742 28.53743,-0.57281 9.24008,-2.30026 18.18216,-6.90798 27.10693,-11.64963 8.92478,-4.74166 17.86741,-9.34518 27.10695,-11.64962 9.23951,-2.30447 18.78807,-2.21607 28.53743,-0.57284 9.74934,1.64322 19.67184,4.62717 29.42152,6.273 9.7497,1.64584 19.29737,1.72741 28.53745,-0.57282 9.24007,-2.30025 18.18215,-6.90798 27.10693,-11.64963 8.92479,-4.74166 17.8674,-9.34516 27.10694,-11.64962 9.23953,-2.30447 18.78809,-2.21606 28.53743,-0.57284 9.74935,1.64322 19.67185,4.62717 29.42154,6.273 9.74969,1.64584 19.29735,1.72741 28.53743,-0.57282 9.24008,-2.30025 18.18216,-6.90797 27.10693,-11.649628 8.92479,-4.741656 17.8674,-9.345162 27.10694,-11.649619 9.23952,-2.304467 18.78808,-2.216063 28.53743,-0.57284 9.74935,1.643223 19.67185,4.627171 29.42153,6.273 9.74969,1.645838 19.29736,1.727412 28.53745,-0.57282 9.24006,-2.300251 18.18214,-6.907973 27.10692,-11.649628"
       transform="rotate(-6.1111256,19.85122,135.13922)" />
    <path
       style="opacity:0.75;fill:#ff6600;fill-rule:nonzero;stroke:none;stroke-width:4.38155079;stroke-miterlimit:4;stroke-dasharray:none;fill-opacity:1"
       d="m 21.272879,136.80607 c 3.820195,-3.25826 7.327704,-6.07111 10.882752,-8.35624 3.841189,-2.46906 7.477083,-4.14356 11.07652,-4.94126 3.860701,-0.85558 7.847757,-0.72851 11.763289,-0.14608 4.208645,0.62602 8.524562,1.81237 12.62483,3.02265 4.472796,1.32006 8.809262,2.50344 13.131406,3.15685 4.436793,0.67075 8.885829,0.78479 13.307532,-0.15601 4.387097,-0.93338 8.667582,-2.89338 12.883132,-5.37542 4.09835,-2.41304 8.14415,-5.32143 12.36082,-8.41992 3.87176,-2.84457 7.97539,-5.73108 12.10309,-8.03995 3.84016,-2.14801 7.81577,-3.86431 11.83405,-4.62001 5.14333,-0.93568 10.60225,-0.35995 17.08437,1.32815 1.7944,1.22383 3.64857,2.56198 5.77106,4.1332 3.88528,2.60302 8.2494,5.4481 12.66487,7.69279 4.13743,2.10334 8.7649,3.91906 13.68325,4.51519 4.68658,0.568 9.3674,0.004 14.06574,-1.20886 4.41812,-1.1407 8.77481,-2.83174 13.19592,-4.64584 4.04041,-1.65539 8.07965,-3.20503 12.0153,-4.18452 3.73494,-0.92954 7.30427,-1.32857 10.72524,-0.88538 3.27059,0.42379 6.75806,1.65401 10.6262,3.62965 2.70243,1.38025 5.47328,3.06189 8.42152,4.98407 1.07052,0.69795 2.14674,1.41618 3.23411,2.14972 4.08365,2.75185 8.41222,5.57466 12.86,7.84127 4.45518,2.27037 9.3,4.12688 14.47427,4.76788 5.20208,0.64439 10.29719,0.012 15.10409,-1.14724 4.77952,-1.15264 9.50359,-2.88697 13.92486,-4.582 4.35179,-1.664 8.37612,-3.08285 12.23653,-3.96229 3.8429,-0.87544 7.22715,-1.14311 10.2957,-0.70477 3.06347,0.4378 6.32804,1.63565 9.9286,3.51306 3.6208,1.88795 7.31199,4.31575 11.30591,7.06017 4.05973,2.78351 8.4796,5.71408 13.09165,8.08936 4.62954,2.38427 9.80441,4.39888 15.45931,5.12222 5.67437,0.72573 11.2111,0.0831 16.33374,-1.06907 5.09135,-1.14511 10.11393,-2.87764 14.71441,-4.5316 4.50576,-1.61318 8.56283,-2.94612 12.38612,-3.75025 3.80554,-0.8004 6.96946,-0.98294 9.69065,-0.5658 2.69913,0.41403 5.66095,1.49376 9.06389,3.28188 3.43856,1.80682 6.97111,4.14013 10.93225,6.87685 4.05698,2.79403 8.60374,5.82033 13.42227,8.29196 4.85038,2.48797 10.39798,4.641 16.56986,5.42174 6.17181,0.78062 12.159,0.0992 17.58483,-1.06932 5.39443,-1.16174 10.70397,-2.916 15.47104,-4.55506 a 12.884691,12.884691 90 0 0 -8.93393,-24.17118 c -4.6025,1.82868 -8.58847,3.33161 -12.33583,4.34985 -3.7059,1.00698 -6.69654,1.39822 -9.20788,1.25485 -2.52304,-0.14437 -5.39909,-0.91802 -8.86081,-2.45512 -3.48625,-1.548 -7.12018,-3.66191 -11.23523,-6.19271 -4.21322,-2.59974 -8.89197,-5.39161 -13.79801,-7.62449 -4.93442,-2.24579 -10.45407,-4.09642 -16.43326,-4.60007 -5.96804,-0.50262 -11.66695,0.41027 -16.82606,1.80681 -5.13413,1.38977 -10.12977,3.3738 -14.65674,5.26882 -4.43585,1.86374 -8.39211,3.44209 -12.16263,4.51869 -3.73184,1.06555 -6.9407,1.53409 -9.79962,1.35819 -2.88836,-0.17795 -6.07221,-1.08008 -9.73011,-2.71692 -3.66913,-1.64187 -7.45261,-3.85258 -11.59469,-6.39982 -4.20925,-2.59442 -8.75378,-5.29979 -13.45341,-7.44571 -4.71539,-2.15313 -9.86064,-3.87446 -15.32704,-4.33115 -5.46914,-0.45684 -10.71794,0.40507 -15.56151,1.77097 -4.82053,1.35939 -9.52529,3.30462 -13.87667,5.20212 -4.28258,1.87199 -8.21914,3.50352 -12.0223,4.61368 -3.77213,1.10111 -7.18684,1.61762 -10.37004,1.38312 -3.2168,-0.23709 -6.66674,-1.28609 -10.47381,-3.03351 -3.81041,-1.74896 -7.70666,-4.0667 -11.85524,-6.65245 -1.14337,-0.71343 -2.29987,-1.42766 -3.46423,-2.12958 -3.19029,-1.92326 -6.40493,-3.73129 -9.6685,-5.24706 -4.6624,-2.16544 -9.45682,-3.74847 -14.38792,-4.176799 -5.1539,-0.447628 -10.05544,0.407578 -14.4725,1.693489 -4.62596,1.34674 -9.15136,3.30289 -13.16828,5.12524 -4.2929,1.95028 -8.095,3.57567 -11.82138,4.69524 -3.90869,1.17435 -7.42665,1.68885 -10.74906,1.42457 -3.56147,-0.28335 -7.24906,-1.49682 -11.02361,-3.24849 -4.01427,-1.86292 -8.11306,-4.33139 -12.07918,-6.80541 -2.48771,-1.39868 -4.66398,-2.593768 -6.81911,-3.703145 -0.19302,-0.09936 -0.3863,-0.198245 -0.57982,-0.296641 -0.10996,-0.02455 -0.21996,-0.04892 -0.33001,-0.07309 -7.33444,-1.611151 -13.97847,-2.158273 -20.43155,-0.707839 -4.82225,1.059371 -9.33708,3.205835 -13.38492,5.601805 -4.3637,2.58293 -8.62056,5.72532 -12.45814,8.66178 -4.14977,3.17621 -7.96666,6.01777 -11.78461,8.35186 -3.92452,2.39926 -7.683953,4.1525 -11.379871,4.99085 -3.705583,0.84045 -7.567284,0.81432 -11.649435,0.23196 -3.997869,-0.57033 -8.090329,-1.65186 -12.540965,-2.9441 -4.123281,-1.19729 -8.696917,-2.44761 -13.231284,-3.11204 -4.228718,-0.61964 -8.795275,-0.79366 -13.357619,0.22126 -4.252133,0.94593 -8.369115,2.88526 -12.495088,5.53814 -3.808216,2.44857 -7.495115,5.41526 -11.356397,8.70856 z"
       title="sin(5*x)"
       id="path6534"
       inkscape:connector-curvature="0"
       inkscape:path-effect="#path-effect6757;#path-effect42"
       inkscape:original-d="m 19.85122,135.13922 c 8.468051,-6.12814 17.011214,-11.85873 26.304697,-13.61828 9.293494,-1.75953 19.339902,0.46574 29.460129,3.08166 10.120206,2.61593 20.165323,4.83433 29.460104,3.08166 9.29479,-1.75266 17.83665,-7.49015 26.3047,-13.61829 8.46806,-6.12813 17.01123,-11.85873 26.30471,-13.61828 9.29348,-1.75953 19.3399,0.46574 29.46011,3.08167 10.12023,2.61592 20.16533,4.83432 29.46012,3.08165 9.29479,-1.75266 17.83667,-7.49015 26.3047,-13.61828 8.46806,-6.12813 17.01122,-11.858734 26.30472,-13.618285 9.29348,-1.759531 19.33988,0.465741 29.46011,3.081665 10.12023,2.61592 20.16534,4.83433 29.46011,3.08166 9.2948,-1.752667 17.83666,-7.490151 26.30472,-13.618289 8.46804,-6.128126 17.01121,-11.858731 26.30469,-13.618267 9.2935,-1.759546 19.33989,0.465726 29.46012,3.08165 10.12021,2.615924 20.16533,4.834326 29.46012,3.081655 9.29478,-1.752662 17.83665,-7.490146 26.30471,-13.618281 8.46805,-6.128135 17.0112,-11.858735 26.3047,-13.61827 9.29348,-1.759548 19.3399,0.465724 29.46012,3.081649 10.12021,2.615924 20.16533,4.834324 29.46012,3.081658 9.29478,-1.752665 17.83664,-7.490145 26.3047,-13.61828" />
    <path
       id="path6573"
       title="sin(6*x)"
       d="m 21.22198,136.84817 c 3.757778,-3.01413 7.334168,-5.56609 10.892105,-7.28144 3.672049,-1.77037 7.141205,-2.55566 10.532979,-2.11652 3.621006,0.4688 7.372774,2.19858 11.252876,4.33071 3.966973,2.17986 7.962284,4.72182 12.013604,6.61498 4.262453,1.99167 8.510937,2.81978 12.766159,2.48345 4.307443,-0.34046 8.517667,-1.86564 12.664002,-4.42756 4.104754,-2.53599 8.087841,-5.64853 12.008075,-8.35804 3.94441,-2.72623 7.69474,-4.96136 11.34077,-5.95177 3.42078,-0.92858 6.8452,-0.62247 10.38579,0.53599 3.50654,1.14732 7.03065,3.09604 10.71486,5.42523 3.63709,2.29767 7.55217,4.57175 11.6359,5.93449 4.00157,1.33532 8.36902,1.87077 13.05235,0.60702 3.58793,-0.95877 7.22961,-2.85701 10.85502,-5.05406 3.32435,-2.0146 6.69573,-4.32242 10.04439,-6.43524 1.23274,-0.21799 2.49633,-0.39916 3.74495,-0.49704 3.32541,-0.54223 6.52405,-0.23175 9.62721,0.98698 2.98266,1.1714 6.02717,3.24205 9.07248,6.46897 3.22273,3.41077 5.97083,7.06949 9.5167,11.31036 3.11459,3.72506 6.78381,7.80282 10.94795,10.44231 4.30222,2.72516 8.949,3.67773 13.6937,3.5897 1.39759,-0.0259 2.79492,-0.14145 4.18647,-0.32272 3.11542,-0.40582 6.23077,-1.14465 9.22401,-1.94606 4.10123,-1.09144 7.79001,-1.83251 11.13735,-1.8478 3.27151,-0.0149 5.98409,0.66625 8.35165,2.22319 2.66536,1.74653 5.32474,4.63325 8.33922,8.41551 2.76001,3.46297 6.12566,8.10966 9.38208,11.75651 3.62774,4.05391 7.76337,7.17873 12.50012,9.06204 4.77194,1.89731 9.85287,2.41245 15.12418,1.65265 4.85245,-0.69043 9.38473,-1.99541 13.39768,-2.83815 4.2044,-0.88295 7.26462,-1.16697 9.60966,-0.67898 0.98577,0.21046 2.00301,0.61754 3.08384,1.25646 1.0968,0.64836 2.26125,1.53729 3.50714,2.70276 2.54779,2.38331 5.08172,5.5787 7.85546,9.44551 2.90686,4.03123 6.24389,8.3834 10.092,11.93324 1.9602,1.80826 4.16532,3.5165 6.65283,4.9086 2.50647,1.40272 5.30808,2.48847 8.41187,3.01938 5.74434,0.98733 11.57484,0.0313 16.15597,-0.90312 5.20028,-1.06073 8.79745,-2.06128 12.61905,-2.50327 2.8579,-0.30934 5.05815,0.11283 6.85155,0.91582 1.78916,0.80109 3.64999,2.19646 5.53002,4.51794 2.24981,2.7408 4.79794,6.6569 7.80985,10.81114 2.81084,3.87692 6.71272,8.88101 11.94507,12.32859 2.90554,1.91081 5.9827,3.16482 9.07972,3.9283 3.06723,0.75613 6.10315,1.0195 8.97001,1.0096 5.59894,-0.0194 11.21026,-1.09952 16.00974,-2.16902 a 12.559973,12.559973 90 0 0 -6.07116,-24.37524 c -4.43021,1.23862 -7.7789,1.98962 -10.57194,2.20125 -1.31998,0.10001 -2.32273,0.0607 -3.08719,-0.0431 -0.72798,-0.0988 -1.29929,-0.26276 -1.76648,-0.4844 -1.52301,-0.77078 -3.55143,-2.69531 -6.44674,-6.23497 -2.40535,-2.94066 -6.04662,-7.86647 -9.4733,-11.53619 -4.14481,-4.45772 -9.03397,-7.84227 -14.64213,-9.75532 -5.61749,-1.91623 -11.46195,-2.18743 -17.28585,-1.12811 -4.80684,0.88587 -10.32926,2.64742 -13.89193,3.60974 -4.23971,1.14519 -6.96584,1.57997 -9.01342,1.43545 -0.78231,-0.0466 -1.64645,-0.24513 -2.65555,-0.69933 -1.02531,-0.46149 -2.16841,-1.17357 -3.44542,-2.19826 -2.62262,-2.10443 -5.30475,-5.10393 -8.33553,-8.84401 -3.16546,-3.92588 -6.74619,-8.058 -10.78479,-11.36829 -2.04633,-1.67729 -4.29524,-3.21602 -6.76398,-4.42876 -2.48356,-1.22002 -5.19239,-2.11093 -8.11868,-2.47314 -5.46573,-0.67226 -10.87229,0.52029 -15.25485,1.71328 -4.5775,1.24605 -8.76696,2.66794 -12.25389,3.38241 -3.06504,0.64126 -5.79099,0.51807 -8.33052,-0.29674 -2.58048,-0.82794 -5.2659,-2.46761 -8.03292,-5.26117 -3.14093,-3.18413 -5.93166,-6.78263 -9.45377,-10.81732 -3.28182,-3.75944 -7.10047,-7.75783 -11.54807,-10.34374 -4.71608,-2.74424 -9.67022,-3.4717 -14.40229,-3.21442 -4.64733,0.25268 -9.27391,1.46766 -13.51104,2.78314 -2.80329,0.87468 -5.41356,1.5934 -7.89115,2.02094 -1.09217,0.18847 -2.13445,0.31624 -3.13346,0.37784 -3.31002,0.20409 -6.15656,-0.31416 -8.75287,-1.81243 -2.97252,-1.7187 -5.99405,-4.7353 -9.22852,-8.36842 -3.32055,-3.72982 -6.64294,-7.8419 -10.19421,-11.3732 -3.82698,-3.8088 -7.89051,-6.45877 -12.14328,-7.94882 -4.4657,-1.56466 -8.995,-1.79912 -13.46659,-0.91242 -1.57492,0.43024 -3.10465,0.94227 -4.47318,1.42662 -0.21072,0.0746 -0.42121,0.14978 -0.63148,0.22562 -0.0839,0.0556 -0.16778,0.11125 -0.25158,0.167 -3.61425,2.40454 -7.06695,4.91711 -10.30474,6.99938 -3.42761,2.20435 -6.466,3.84421 -9.23669,4.67294 -3.34509,0.99021 -6.58673,0.73803 -9.88986,-0.28409 -3.46093,-1.07095 -6.95886,-2.98109 -10.58472,-5.18762 -3.83225,-2.33361 -7.8043,-4.48316 -11.91979,-5.76131 -4.23306,-1.31465 -8.63849,-1.71157 -13.14826,-0.43001 -4.45376,1.26571 -8.73626,3.94438 -12.70798,6.73395 -4.048025,2.84317 -7.968358,5.93455 -11.756133,8.30438 -3.647145,2.28231 -7.170995,3.53543 -10.63528,3.82507 -3.40615,0.28477 -6.891658,-0.34972 -10.539212,-2.04326 -3.685795,-1.71146 -7.625471,-4.19457 -11.765195,-6.46297 -3.942899,-2.16054 -8.312841,-4.24651 -12.805943,-4.82577 -4.483214,-0.578 -8.820175,0.50405 -12.997927,2.51874 -4.009963,1.93377 -7.894272,4.73353 -11.73044,7.81054 z"
       style="opacity:0.75;fill:#2ad4ff;fill-rule:nonzero;stroke:none;stroke-width:4.38155079;stroke-miterlimit:4;stroke-dasharray:none"
       inkscape:connector-curvature="0"
       inkscape:path-effect="#path-effect6761;#path-effect48"
       inkscape:original-d="m 19.85122,135.13922 c 9.458588,-5.33927 18.917176,-9.72694 28.375763,-8.0818 9.458588,1.64513 18.917176,8.75411 28.375763,13.07663 9.458588,4.32252 18.917173,4.3166 28.375764,0 9.45859,-4.3166 18.91718,-11.42192 28.37576,-13.07663 9.45859,-1.65471 18.91718,2.74253 28.37577,8.0818 9.45858,5.33927 18.91717,9.72694 28.37576,8.0818 9.45859,-1.64513 18.91717,-8.75411 28.37576,-13.07663 9.45859,-4.32252 18.91718,-4.3166 28.37577,0 9.45858,4.3166 18.91717,11.42192 28.37576,13.07663 9.45859,1.65471 18.91717,-2.74253 28.37576,-8.0818 9.45859,-5.33927 18.91718,-9.72694 28.37576,-8.0818 9.45859,1.64513 18.91718,8.75411 28.37577,13.07663 9.45859,4.32252 18.91717,4.3166 28.37576,0 9.45859,-4.3166 18.91718,-11.42192 28.37576,-13.07663 9.45859,-1.65471 18.91718,2.74253 28.37577,8.0818 9.45858,5.33927 18.91717,9.72694 28.37576,8.0818 9.45859,-1.64513 18.91717,-8.75411 28.37576,-13.07663 9.45859,-4.32252 18.91718,-4.3166 28.37577,0 9.45858,4.3166 18.91717,11.42192 28.37576,13.07663 9.45859,1.65471 18.91717,-2.74253 28.37576,-8.0818" />
    <path
       style="opacity:0.75;fill:#6600ff;fill-rule:nonzero;stroke:none;stroke-width:4.38155079;stroke-miterlimit:4;stroke-dasharray:none"
       d="m 21.322181,136.76273 c 1.33694,-1.21133 2.655327,-2.3468 3.988439,-3.31869 2.029166,-1.47933 3.963027,-2.599 5.806527,-3.29596 1.557866,-0.58897 3.007952,-0.85964 4.369837,-0.8201 1.371353,0.0398 2.717021,0.39533 4.066658,1.14278 1.486665,0.82161 3.004684,1.98317 4.578291,3.34643 1.600579,1.38663 3.192876,2.92287 4.832468,4.45258 1.65328,1.54248 3.358357,3.08165 5.108192,4.37444 1.775258,1.31157 3.700194,2.44852 5.77335,3.05603 2.222929,0.6506 4.431335,0.55444 6.519574,0.0414 2.106543,-0.51756 4.147125,-1.47249 6.064473,-2.58521 3.82172,-2.21791 7.926031,-5.5623 11.395177,-8.17654 3.596651,-2.70651 6.780454,-4.06291 9.508909,-4.36535 1.395138,-0.15465 2.689029,-0.0372 3.906065,0.32521 1.247813,0.37157 2.487976,1.02258 3.721199,2.00862 2.87003,2.28737 5.77968,5.51986 8.90878,8.29699 1.61024,1.42911 3.3445,2.78947 5.2244,3.80984 1.95075,1.05882 4.12989,1.79009 6.53078,1.80764 2.39993,0.0177 4.72564,-0.68801 6.8055,-1.59993 2.15461,-0.94469 4.29759,-2.22517 6.30258,-3.53481 4.25311,-2.77811 8.31059,-5.89595 11.8442,-7.96753 3.4865,-2.0401 6.25529,-2.41289 8.43611,-2.06575 2.3657,0.37657 4.64408,1.69856 6.84345,3.95673 2.71865,2.77935 5.5959,6.00966 8.83337,8.32866 1.75132,1.25447 3.70226,2.31645 5.8972,2.91325 2.3238,0.63184 4.75715,0.69568 7.27172,0.098 0.88608,-0.16253 1.74753,-0.38878 2.56006,-0.64423 0,0.0131 0,0.0261 0,0.0391 l 0.0664,-4.3e-4 c 3.72826,0.003 7.773,-1.12915 10.51225,-1.83099 1.62462,-0.41626 3.02421,-0.7605 4.34811,-0.99055 1.34668,-0.234 2.4272,-0.31362 3.31113,-0.25303 0.72379,0.0528 1.4175,0.29432 2.15915,0.77443 0.78627,0.509 1.66898,1.31804 2.62957,2.53505 1.9524,2.47361 3.80762,6.08297 5.69349,10.67172 1.88454,4.56905 4.1911,9.54739 7.20316,13.40057 1.4776,1.89021 3.28746,3.72712 5.52552,5.12869 2.201,1.37835 4.78266,2.31135 7.72649,2.46055 2.42991,0.12698 4.84565,-0.18335 7.0495,-0.591 2.09618,-0.38773 4.26417,-0.91839 6.15271,-1.33463 1.88654,-0.41579 3.53074,-0.72719 4.96974,-0.83226 1.38742,-0.10132 2.2841,0.0159 2.84066,0.21639 0.28739,0.11386 0.78922,0.39558 1.47768,1.13238 0.69569,0.74453 1.48897,1.85324 2.37768,3.47593 1.78077,3.25148 3.19096,7.06268 5.17221,12.11309 1.88453,4.77928 4.56649,9.64468 8.68929,13.1132 2.00157,1.68392 4.35084,3.0445 7.07115,3.86916 2.6209,0.79453 5.40178,1.03549 8.29534,0.74426 4.63106,-0.45496 9.02514,-1.61492 12.54252,-2.08272 1.72413,-0.22931 3.05079,-0.28255 4.04565,-0.16999 0.94676,0.10711 1.28306,0.32675 1.39116,0.43214 0.13105,0.12527 0.58162,0.50803 1.25875,1.59879 0.66151,1.0656 1.35113,2.49737 2.12117,4.43103 1.43346,3.59959 2.81412,8.38072 4.94879,13.2866 1.17718,2.69159 2.71119,5.20094 4.70728,7.37096 1.96283,2.13387 4.2877,3.84535 6.95204,5.06035 2.58102,1.177 5.31001,1.81108 8.08772,2.02475 2.69154,0.20704 5.43037,0.0203 8.16589,-0.44117 4.57679,-0.75794 8.19642,-1.45535 11.22502,-1.43437 1.36963,0.01 2.21122,0.17887 2.65701,0.35717 0.40651,0.16258 0.30852,0.23878 0.31425,0.26042 0.22741,0.31453 0.67215,0.94292 1.31643,2.45528 0.61199,1.43658 1.1891,3.16003 1.8636,5.35371 1.08819,3.53913 2.76279,9.79278 5.40621,14.40975 1.71259,2.98008 4.01324,5.44317 6.85737,7.27901 2.7492,1.77455 5.70113,2.76833 8.57013,3.28089 5.37047,0.95945 11.04576,0.32239 15.99621,-0.53057 a 10.320395,10.320395 90 0 0 -3.7998,-20.28802 c -4.40697,0.90784 -7.12018,1.10473 -8.90355,0.89698 -0.74066,-0.0863 -1.16095,-0.23785 -1.2274,-0.25812 -0.0819,-0.025 -0.22347,-0.0281 -0.48555,-0.40511 -1.3412,-2.08061 -2.38224,-5.44216 -4.07369,-10.36855 -0.78758,-2.29386 -1.70984,-4.85388 -2.85599,-7.27966 -1.15766,-2.45013 -2.73003,-5.1733 -4.98802,-7.50338 -2.57951,-2.66561 -5.60132,-4.24975 -8.59332,-5.11661 -2.96722,-0.85966 -5.90229,-1.01701 -8.44745,-0.92607 -4.942,0.17658 -10.48148,1.45473 -14.05749,2.17631 -1.59446,0.33086 -2.84946,0.43457 -3.82594,0.41086 -0.97921,-0.0238 -1.6707,-0.17504 -2.16145,-0.35188 -0.49187,-0.17723 -0.96271,-0.44289 -1.44932,-0.90602 -0.51974,-0.49467 -1.12925,-1.28537 -1.74139,-2.54639 -1.60463,-3.35567 -3.17687,-8.10248 -5.18604,-12.68929 -1.03215,-2.35634 -2.2562,-4.82018 -3.78904,-7.05788 -1.57921,-2.3054 -3.66412,-4.63422 -6.47677,-6.30494 -2.92267,-1.73603 -5.97357,-2.36296 -8.63974,-2.51709 -2.71306,-0.15684 -5.35442,0.15945 -7.59133,0.54468 -4.85531,0.83616 -8.98759,2.05045 -11.85894,2.45283 -1.06385,0.1598 -1.84407,0.10277 -2.42765,-0.0285 -0.6108,-0.13735 -1.2262,-0.40493 -1.89127,-0.9009 -1.51668,-1.13102 -3.18502,-3.3782 -4.8031,-7.12166 -1.93438,-4.50555 -3.91017,-9.40445 -6.40415,-13.59098 -1.33001,-2.23262 -2.88842,-4.40245 -4.77877,-6.22695 -2.00472,-1.9349 -4.44849,-3.54142 -7.39529,-4.34089 -2.7998,-0.75714 -5.53605,-0.70038 -7.81428,-0.43549 -2.37886,0.27659 -4.72954,0.84396 -6.67606,1.3483 -2.26952,0.58804 -3.84746,1.04575 -5.64558,1.44948 -1.76279,0.39579 -3.05352,0.56833 -4.06303,0.56774 -0.61163,0.0107 -1.18445,-0.11665 -1.83355,-0.4717 -0.72092,-0.39434 -1.56195,-1.08827 -2.50434,-2.20299 -2.02277,-2.39269 -3.93396,-6.01324 -5.8903,-10.41981 -2.13807,-4.83169 -4.62118,-9.58733 -7.71345,-13.24556 -1.57982,-1.86897 -3.43088,-3.58752 -5.61316,-4.86337 -2.20269,-1.28779 -4.709,-2.10172 -7.4825,-2.16603 -2.0022,-0.0392 -3.95141,0.24206 -5.74399,0.62351 -1.75025,0.37245 -3.48044,0.86983 -5.07647,1.33779 -3.22575,0.94578 -5.73326,1.69614 -7.85556,1.78513 l 0.0663,-4.3e-4 c 0,0.0986 0,0.20072 0,0.31128 l 0,-0.72988 -2.03997,1.18633 c -0.93589,0.54427 -1.83928,0.99972 -2.6786,1.31995 -1.04237,0.2821 -1.96796,0.28577 -2.8868,0.0711 -0.92369,-0.21581 -1.95134,-0.67909 -3.14898,-1.48553 -2.48378,-1.67246 -4.64072,-3.99791 -7.8853,-7.15512 -3.15666,-3.07981 -7.04133,-5.44913 -11.65738,-6.03583 -4.34464,-0.5522 -8.90445,0.53226 -13.57039,3.39918 -4.09624,2.52027 -8.16554,5.79286 -11.99024,8.40574 -1.8449,1.26036 -3.56966,2.32359 -5.15962,3.06792 -1.5622,0.73133 -2.81119,1.06689 -3.79722,1.09503 -0.93109,0.0262 -1.96782,-0.21614 -3.20448,-0.84152 -1.22468,-0.61933 -2.52842,-1.55398 -3.98989,-2.78831 -2.7675,-2.33737 -5.78845,-5.58482 -9.38472,-8.30784 -1.87414,-1.42148 -3.89578,-2.44408 -6.051727,-3.01606 -2.106949,-0.55899 -4.268608,-0.66794 -6.449472,-0.36214 -4.185109,0.58682 -8.340273,2.68238 -12.389741,5.86497 -3.710355,2.91939 -7.2714,5.9572 -10.64581,8.02441 -1.629486,0.99825 -3.133675,1.7179 -4.522387,2.10197 -1.33731,0.36986 -2.532589,0.4201 -3.645783,0.13274 -1.231752,-0.32004 -2.595546,-1.02184 -4.14323,-2.10735 -1.515153,-1.0627 -3.064174,-2.38921 -4.736633,-3.88122 -1.585223,-1.41417 -3.346123,-3.03751 -5.07478,-4.46735 -1.717953,-1.42098 -3.57199,-2.79606 -5.52572,-3.80994 -2.050508,-1.06549 -4.162914,-1.56693 -6.302061,-1.56502 -2.088517,0.002 -4.128458,0.48269 -6.098708,1.28883 -2.312956,0.94637 -4.566366,2.35581 -6.753027,4.02846 -1.445697,1.10586 -2.896104,2.30272 -4.306562,3.58065 z"
       title="sin(7*x)"
       id="path6612"
       inkscape:connector-curvature="0"
       inkscape:path-effect="#path-effect6751;#path-effect52"
       inkscape:original-d="m 19.85122,135.13922 c 9.45859,-6.22914 18.91718,-10.53065 28.37577,-6.87479 9.45859,3.65585 18.91717,13.02517 28.37576,14.95659 9.45859,1.93143 18.91718,-4.78135 28.37577,-10.70774 9.45858,-5.92638 18.91717,-7.40435 28.37576,-2.36889 9.45859,5.03546 18.91717,13.48569 28.37576,13.49254 9.45859,0.007 18.91718,-8.44903 28.37577,-13.49254 9.45858,-5.04351 18.91717,-3.55326 28.37576,2.36889 9.45859,5.92215 18.91717,12.62614 28.37576,10.70774 9.45859,-1.91839 18.91718,-11.28965 28.37576,-14.95659 9.45859,-3.66694 18.91718,0.64565 28.37577,6.87479 9.45858,6.22914 18.91717,10.53065 28.37576,6.87479 9.45859,-3.65585 18.91718,-13.02517 28.37576,-14.95659 9.45859,-1.93143 18.91718,4.78135 28.37577,10.70774 9.45858,5.92638 18.91717,7.40435 28.37576,2.36889 9.45859,-5.03546 18.91717,-13.48569 28.37576,-13.49254 9.45859,-0.007 18.91718,8.44903 28.37577,13.49254 9.45858,5.04351 18.91717,3.55326 28.37576,-2.36889 9.45859,-5.92215 18.91717,-12.62614 28.37576,-10.70774 9.45859,1.91839 18.91718,11.28965 28.37576,14.95659 9.45859,3.66694 18.91718,-0.64565 28.37577,-6.87479" />
    <path
       id="path6651"
       title="sin(4.5*x)"
       d="m 21.004745,137.00171 c 3.999852,-2.47729 7.776232,-4.72456 11.569275,-6.56371 3.941139,-1.91095 7.726244,-3.29165 11.45977,-3.95287 3.844903,-0.68094 7.722258,-0.5883 11.582215,0.003 3.995293,0.61253 8.015015,1.7672 11.995588,3.19568 4.125439,1.48043 8.247444,3.15228 12.384195,4.59 4.189313,1.45598 8.436524,2.68796 12.711939,3.21587 8.638243,1.06646 17.176513,-0.98158 25.721733,-5.10914 8.23468,-3.9772 16.51439,-9.56186 24.79649,-13.04214 7.64885,-3.21368 15.50173,-4.38133 23.37064,-2.82983 1.48283,0.35815 3.01697,0.82349 4.63614,1.40038 5.5059,3.30957 11.35548,7.78428 17.78516,11.90454 3.92441,2.49224 8.08331,4.71142 12.43601,6.31256 4.15802,1.52952 8.58911,2.53131 13.25821,2.62306 4.44521,0.0877 8.90818,-0.61751 13.39021,-1.68683 4.30811,-1.02784 8.54272,-2.36695 12.84896,-3.65396 4.63703,-1.38442 9.25233,-2.52868 13.72759,-2.96955 3.19419,-0.31467 6.2319,-0.26075 9.13836,0.26514 6.96298,1.26 13.95044,5.33844 21.48921,10.63839 3.72631,2.61772 7.70301,5.4886 11.6974,7.99826 4.01618,2.52335 8.32672,4.86374 12.90403,6.41045 4.66815,1.57647 9.41331,2.22759 14.16892,2.19858 4.74,-0.0289 9.47065,-0.73306 14.13419,-1.84823 4.57968,-1.09281 8.99761,-2.44366 13.19724,-3.57321 4.25381,-1.14412 8.1205,-2.02356 11.7594,-2.35118 6.87822,-0.6133 13.43118,0.97066 19.82583,4.58702 6.63692,3.74606 13.88409,9.98882 22.35956,15.2059 8.69667,5.34582 18.39795,8.7216 29.17208,8.33121 5.18484,-0.18596 10.28494,-1.18288 14.96173,-2.30953 4.73738,-1.14125 9.24534,-2.45654 13.43555,-3.49675 8.3142,-2.05435 14.91604,-2.50625 20.36391,-0.97981 2.72825,0.76308 5.63428,2.10994 8.87175,4.03892 3.26541,1.94563 6.57441,4.30077 10.25359,6.99314 a 11.79957,11.79957 90 0 0 13.44388,-19.3954 c -3.86734,-2.5425 -8.13531,-5.28917 -12.60739,-7.63114 -4.49501,-2.35398 -9.48487,-4.4573 -14.91508,-5.60216 -10.88437,-2.29594 -21.61591,-0.22582 -30.97859,2.64421 -4.63727,1.4257 -9.00095,2.95716 -13.03995,4.17337 -4.10021,1.23465 -7.68015,2.09828 -10.94231,2.42491 -6.14754,0.62119 -12.40285,-0.8187 -19.15889,-4.4473 -6.96461,-3.7499 -14.75058,-9.82495 -23.76067,-14.24391 -9.25047,-4.54212 -19.02529,-6.31949 -29.08813,-4.8242 -4.84528,0.72179 -9.57818,2.11668 -13.93705,3.53877 -4.4141,1.44011 -8.62656,2.96127 -12.5988,4.13069 -3.8788,1.1449 -7.57675,1.87516 -11.12128,2.09043 -3.52863,0.21431 -6.92919,-0.0799 -10.23729,-1.00715 -3.394,-0.95241 -6.91324,-2.598 -10.67067,-4.73024 -3.77435,-2.14185 -7.52203,-4.61549 -11.53322,-7.19435 -7.9437,-5.11099 -16.66366,-9.97611 -25.96267,-11.26532 -3.96584,-0.54977 -7.88971,-0.43135 -11.71371,0.0894 -5.29859,0.72151 -10.50006,2.23757 -15.26621,3.83901 -4.42632,1.48859 -8.28877,2.85496 -12.26194,3.94687 -4.06608,1.11745 -7.78543,1.80578 -11.31669,1.86028 -3.64532,0.0567 -7.25635,-0.60193 -10.84337,-1.79091 -3.76686,-1.24858 -7.51245,-3.08461 -11.21532,-5.29222 -6.26596,-3.70153 -12.42497,-8.11317 -18.52539,-11.49147 -0.13637,-0.0755 -0.27295,-0.15069 -0.40972,-0.22549 -0.0868,-0.0207 -0.17359,-0.0412 -0.26043,-0.0615 -2.04132,-0.47869 -3.98363,-0.84995 -5.87442,-1.1053 -9.17805,-1.59041 -18.08186,0.002 -26.41202,3.66133 -8.90621,3.91282 -17.10871,9.62703 -24.8632,13.47528 -7.9433,3.94233 -15.56353,5.76145 -23.092358,4.88169 -3.815008,-0.44585 -7.721456,-1.54031 -11.796798,-2.93821 -3.996431,-1.37082 -8.108889,-3.02331 -12.352647,-4.53474 -4.147909,-1.47733 -8.455892,-2.7166 -12.82001,-3.3799 -4.225199,-0.64218 -8.596783,-0.75976 -13.011411,0.0244 -4.253994,0.75565 -8.434486,2.30498 -12.605809,4.32802 -4.006838,1.94326 -7.942431,4.2905 -11.964362,6.78146 z"
       style="opacity:0.753;fill:#ffcc00;fill-rule:nonzero;stroke:none;stroke-width:4.38155079;stroke-miterlimit:4;stroke-dasharray:none;fill-opacity:1"
       inkscape:connector-curvature="0"
       inkscape:path-effect="#path-effect6759;#path-effect44"
       inkscape:original-d="m 19.85122,135.13922 c 9.084243,-4.79344 18.189301,-9.34272 27.560251,-10.77314 9.370959,-1.43041 19.01525,0.3456 28.763089,3.33593 9.747848,2.99036 19.56039,6.73974 29.13943,7.75021 9.57905,1.01047 18.90499,-0.94799 28.05433,-4.97776 9.14934,-4.02976 18.1548,-9.74743 27.3385,-13.37423 9.1837,-3.62679 18.57549,-4.81276 28.19964,-3.27326 9.62414,1.53951 19.4573,5.53059 29.18489,8.2835 9.7276,2.75291 19.31248,3.83202 28.632,1.79827 9.31952,-2.03375 18.38539,-7.04275 27.47378,-11.7875 9.08839,-4.74477 18.24012,-8.74658 27.66428,-9.55286 9.42416,-0.80625 19.12178,1.59513 28.88212,4.73208 9.76034,3.13696 19.5429,6.53455 29.07263,6.96674 9.52975,0.4322 18.79298,-2.26177 27.91441,-6.61903 9.12142,-4.35728 18.13725,-9.95328 27.36151,-13.104273 9.22427,-3.150994 18.682,-3.563395 28.34676,-1.547511 9.66477,2.015885 19.50818,6.127308 29.2079,8.553464 9.69975,2.42616 19.22191,2.76935 28.49209,0.15699 9.27019,-2.612361 18.30616,-7.971954 27.40698,-12.570981 9.10082,-4.599028 18.30594,-7.974617 27.78331,-8.156694 9.47738,-0.182076 19.2216,2.765855 28.98616,5.952371" />
    <path
       style="opacity:0.753;fill:#00ff00;fill-rule:nonzero;stroke:none;stroke-width:4.38155079;stroke-miterlimit:4;stroke-dasharray:none"
       d="m 21.296626,136.78552 c 3.582262,-3.14513 7.021137,-5.92095 10.487254,-8.00616 3.57478,-2.15059 7.009304,-3.45901 10.408516,-3.69951 3.515327,-0.24873 7.195962,0.58575 11.002281,1.90909 3.90198,1.3566 7.850615,3.19489 11.809232,4.82129 4.128726,1.69615 8.249959,2.85491 12.398828,3.12928 4.221643,0.27918 8.428161,-0.36142 12.627162,-2.22692 4.113454,-1.82736 8.192702,-4.67997 12.133391,-7.59228 3.9899,-2.94869 7.87671,-5.98771 11.80301,-8.43858 3.79794,-2.37035 7.57483,-3.92375 11.2859,-4.63553 3.63333,-0.69686 7.24799,-0.59619 10.82204,0.37989 3.65722,0.99799 7.21882,2.66084 11.18705,4.45486 3.69467,1.67035 7.81871,3.49047 12.0588,4.34964 2.77353,0.61612 5.67938,0.77604 8.74051,0.45605 5.00192,1.39247 10.30211,1.30005 15.92523,-0.074 4.11921,-1.04135 8.21263,-2.47068 12.14835,-3.50238 3.82359,-1.00231 7.33782,-1.58587 10.55452,-1.21812 2.96837,0.3411 6.0208,1.62468 9.27156,3.84703 3.14144,2.14761 6.30891,5.05984 9.64021,8.56878 3.18286,3.34908 6.77367,7.19794 10.43294,10.37412 1.18642,1.02979 2.41997,2.02557 3.69941,2.94826 2.63608,1.90105 5.52824,3.53871 8.70107,4.52786 4.72796,1.47373 9.55377,1.35309 14.09404,0.66451 4.48703,-0.68051 9.08159,-1.98811 13.23428,-3.10893 4.05536,-1.08872 7.75971,-1.74634 11.14048,-1.74001 3.33339,0.006 6.21108,0.65745 8.77657,2.06947 2.7777,1.52401 5.60645,4.00936 8.77847,7.2747 3.10141,3.19265 6.31617,6.92807 9.86211,10.49266 3.69227,3.70333 7.78623,6.88603 12.39003,9.09277 4.65789,2.23267 9.75371,3.42262 15.27115,3.19877 5.08562,-0.20111 10.26225,-1.44314 14.65399,-2.51486 4.69177,-1.14494 8.5523,-2.11038 12.12079,-2.40899 3.08142,-0.24665 5.81522,0.21152 8.31967,1.21156 2.52323,1.00754 5.05184,2.66231 7.57553,5.09367 2.98263,2.85492 5.56216,5.94909 9.11747,9.84334 3.22637,3.53395 7.22066,7.66741 11.95746,10.71213 5.18182,3.32381 10.7843,4.92914 16.41831,5.39716 5.54129,0.46032 11.09071,-0.17858 16.35616,-1.27564 5.20195,-1.0723 9.19925,-2.07987 13.37693,-2.69237 4.04368,-0.59286 6.83353,-0.55259 8.78823,-0.032 1.68029,0.45494 3.65832,1.50302 6.09904,3.5174 2.51276,2.07383 5.07736,4.79354 8.09287,8.23881 a 12.77739,12.77739 90 0 0 18.72975,-17.38516 c -3.41062,-3.48731 -7.40084,-7.37779 -11.89367,-10.60828 -4.54824,-3.27031 -10.04862,-6.19101 -16.55745,-7.28693 -6.2508,-1.05039 -12.34703,-0.24539 -17.42879,0.82508 -4.92663,1.03778 -10.35053,2.68525 -14.31794,3.75734 -3.92846,1.07523 -7.22314,1.59033 -10.02309,1.57653 -2.69899,-0.0133 -4.96078,-0.51426 -6.97164,-1.5748 -2.46709,-1.31866 -5.15021,-3.60075 -8.49918,-6.8434 -3.03352,-2.93722 -6.91679,-6.98701 -10.77628,-10.22667 -4.30522,-3.6245 -9.06912,-6.39005 -14.27827,-8.00706 -5.23293,-1.62438 -10.67612,-2.01428 -16.21783,-1.17177 -5.03867,0.77276 -10.14204,2.41841 -14.30367,3.70662 -4.48243,1.38751 -8.08699,2.4355 -11.34789,2.79429 -2.82193,0.31984 -5.53829,-0.0533 -8.30613,-1.1482 -2.82157,-1.1162 -5.75233,-3.00796 -8.82385,-5.76092 -3.22523,-2.90105 -6.62207,-6.45101 -10.29737,-9.85521 -3.60187,-3.3362 -7.71985,-6.7492 -12.37092,-8.94142 -4.8492,-2.2876 -9.83109,-2.9305 -14.64057,-2.66392 -4.75601,0.26362 -9.45623,1.42277 -13.87706,2.84092 -4.32928,1.39424 -8.17617,2.67739 -11.89407,3.42516 -3.65844,0.7358 -6.80551,0.86141 -9.59376,0.142 -1.90643,-0.49196 -3.91252,-1.45408 -6.06715,-2.88086 -1.03339,-0.68431 -2.07569,-1.45823 -3.12987,-2.30652 -3.3488,-2.69474 -6.7025,-6.04591 -10.13258,-9.42183 -3.66003,-3.60574 -7.4161,-6.87302 -11.35261,-9.35639 -4.10651,-2.5906 -8.46368,-4.3603 -13.09591,-4.70367 -4.66023,-0.34446 -9.23474,0.70042 -13.25088,1.90145 -4.28338,1.28096 -8.28347,2.82364 -11.96089,3.88258 -4.79078,1.43547 -9.06526,1.64235 -13.01271,0.65332 -0.25299,-0.0634 -0.50472,-0.1317 -0.75504,-0.20491 -0.19554,0.0465 -0.39164,0.0907 -0.58825,0.13252 -2.63581,0.56049 -5.10365,0.63984 -7.45548,0.28156 -3.55843,-0.63202 -7.17593,-2.10924 -10.96812,-3.73497 -3.86692,-1.65777 -7.87882,-3.45298 -12.03375,-4.51001 -4.37362,-1.11339 -8.75683,-1.15159 -13.06892,-0.26113 -4.38303,0.90511 -8.68336,2.76677 -12.85318,5.42546 -4.10407,2.61711 -8.21255,5.87682 -12.031036,8.74078 -3.917205,2.93799 -7.625648,5.53784 -11.227595,7.16354 -3.479456,1.57059 -6.949784,2.1227 -10.495726,1.90355 -3.524297,-0.21782 -7.164492,-1.20024 -11.009874,-2.76942 -3.689881,-1.50583 -7.999698,-3.48552 -12.042667,-4.88553 -4.034407,-1.39705 -8.372577,-2.44274 -12.75396,-2.13038 -4.313359,0.30751 -8.4191,1.94967 -12.356771,4.31908 -3.807424,2.29103 -7.481032,5.27419 -11.119007,8.46823 z"
       title="sin(5.5*x)"
       id="path6690"
       inkscape:connector-curvature="0"
       inkscape:path-effect="#path-effect6755;#path-effect46"
       inkscape:original-d="m 19.85122,135.13922 c 8.732937,-6.09551 17.549248,-11.56241 27.02584,-12.05122 9.47659,-0.48882 19.589562,3.82037 29.578242,7.19237 9.98868,3.372 19.69488,4.61426 28.779688,1.17164 9.0848,-3.44262 17.62159,-11.01689 26.47711,-16.18824 8.85551,-5.17135 18.16497,-6.92029 27.9961,-4.73616 9.83111,2.18414 20.06822,7.42918 29.8234,9.04073 9.75518,1.61157 18.92939,-1.15693 27.73273,-6.72171 8.80333,-5.56478 17.38243,-12.82007 26.5595,-15.56702 9.17709,-2.746952 19.00528,-0.58493 29.01728,2.96284 10.01198,3.54778 20.04449,7.25021 29.42151,6.01074 9.377,-1.23971 18.09653,-7.43631 26.8373,-13.472722 8.74077,-6.036423 17.66675,-10.676483 27.24156,-10.424834 9.57479,0.251639 19.74918,5.023767 29.6993,8.105025 9.95011,3.081253 19.52742,3.351837 28.52608,-0.740277 8.99866,-4.092109 17.51438,-11.825336 26.4354,-16.502727 8.92104,-4.677391 18.36597,-5.404932 28.26274,-2.725845 9.89678,2.679097 20.11257,7.763503 29.7817,8.726255 9.66911,0.962752 18.71453,-2.776901 27.47913,-8.633637 8.76461,-5.856746 17.40532,-12.647556 26.68057,-14.654359 9.27524,-2.006803 19.21298,0.981057 29.23297,4.589222" />
    <path
       id="path6729"
       title="sin(6.5*x)"
       d="m 21.245252,136.83155 c 3.75458,-3.08645 7.184433,-5.45667 10.489467,-6.85921 1.733708,-0.73573 3.372824,-1.17729 4.937737,-1.324 1.622229,-0.15207 3.186034,0.0105 4.720414,0.5134 1.658751,0.54366 3.349283,1.42815 5.064479,2.50951 1.774924,1.11903 3.563869,2.44124 5.334372,3.77686 3.73494,2.81755 7.44189,5.7332 11.284206,7.43102 2.091,0.92383 4.191855,1.36103 6.279627,1.40723 2.1262,0.0471 4.214339,-0.31169 6.245411,-0.94806 4.093912,-1.2827 8.137787,-3.75339 12.077436,-6.66905 3.848122,-2.84708 7.657693,-5.55693 11.344866,-7.33843 1.798003,-0.86872 3.531693,-1.49873 5.190793,-1.8185 1.61104,-0.31051 3.14067,-0.32685 4.60231,0.007 1.46722,0.33502 2.98399,1.00029 4.60127,1.96261 1.56991,0.93413 3.15451,2.09845 4.84596,3.43201 2.91439,2.29773 6.77801,5.68256 10.40956,7.74729 1.93872,1.10093 3.99795,1.82841 6.17884,2.15494 2.0891,0.31278 4.23759,0.24997 6.44101,-0.15907 4.12543,-0.76583 8.40335,-2.73542 12.92321,-5.67849 3.95374,-2.57205 8.24989,-5.51667 12.21552,-7.55995 1.89973,-0.97883 3.7248,-1.75434 5.44324,-2.22834 1.65509,-0.45653 3.1356,-0.61242 4.45489,-0.45496 1.66385,0.2631 3.41177,1.03503 5.424,2.42431 3.00054,4.16486 6.11133,9.79673 9.92671,15.03348 3.06477,4.1328 6.71567,7.33295 11.11163,9.11711 4.2043,1.70636 8.76541,1.98394 13.5887,0.93952 4.1549,-0.89401 8.23706,-2.20605 11.83337,-2.84392 1.58153,-0.28052 3.01501,-0.42622 4.31261,-0.39526 0.13648,0.003 0.27079,0.008 0.40299,0.0156 1.36136,0.0737 2.48599,0.35231 3.45656,0.83086 0.99806,0.49198 2.08726,1.31124 3.28505,2.543 1.19755,1.23151 2.4034,2.77061 3.6589,4.58403 2.48605,3.59078 4.98118,8.03709 7.75587,12.27291 2.94279,4.48295 6.45414,8.18848 10.74533,10.56223 4.38881,2.42774 9.27352,3.27915 14.49414,2.50643 4.65585,-0.68123 9.00859,-2.03385 12.76693,-2.80109 1.90845,-0.3896 3.56083,-0.62313 5.01138,-0.65269 1.44141,-0.0294 2.51527,0.14765 3.34017,0.45709 0.74902,0.28436 1.61432,0.81134 2.6132,1.7198 1.0132,0.92148 2.07547,2.1545 3.21441,3.73154 2.37,3.28167 4.45477,7.13577 7.04462,11.57202 2.69866,4.60476 5.9952,8.85278 10.21241,11.87425 2.13977,1.53306 4.52149,2.75337 7.15871,3.52589 2.64371,0.77444 5.41789,1.06149 8.29027,0.85345 4.76602,-0.33658 10.17198,-1.80147 13.88577,-2.60567 2.06367,-0.44688 3.83775,-0.76382 5.40512,-0.89078 1.57001,-0.12718 2.67362,-0.0389 3.43416,0.16072 0.54731,0.15264 1.17105,0.46035 1.90587,1.03272 0.76975,0.59959 1.64612,1.4793 2.63485,2.744 2.05961,2.6345 3.98131,6.09716 6.25356,10.38864 2.43741,4.57522 5.47042,9.26567 9.49667,12.87942 2.06072,1.84959 4.45001,3.48082 7.21853,4.65312 2.79192,1.1822 5.81423,1.83064 9.02826,1.86249 5.33952,0.0611 11.15026,-1.36545 15.16884,-2.23998 2.24008,-0.48749 4.157,-0.87591 5.89545,-1.09761 1.74213,-0.22217 2.98348,-0.23013 3.83307,-0.10503 0.50386,0.0873 0.94549,0.28081 1.41646,0.58756 0.50764,0.33064 1.16225,0.87212 1.94937,1.76657 1.67727,1.90599 3.3851,4.73825 5.34119,8.71943 a 10.493767,10.493767 90 0 0 18.63381,-9.65699 c -2.36264,-4.36674 -5.31896,-9.23486 -9.18319,-13.15827 -1.98148,-2.01181 -4.32226,-3.90304 -7.08928,-5.35904 -2.80497,-1.47598 -5.92909,-2.44007 -9.34083,-2.68923 -3.05455,-0.21958 -6.00674,0.10156 -8.58583,0.55257 -2.58352,0.45178 -5.14345,1.1007 -7.3778,1.68653 -4.98745,1.30767 -8.0766,2.15721 -10.76509,2.2919 -0.7687,0.0509 -1.41664,-0.0298 -2.02755,-0.22655 -0.63845,-0.20563 -1.3859,-0.58667 -2.26163,-1.27921 -1.84363,-1.45796 -3.84267,-3.95916 -6.04925,-7.70987 -2.3691,-4.05561 -5.18675,-8.8033 -8.56274,-12.70109 -1.72766,-1.99469 -3.74378,-3.94019 -6.11112,-5.53337 -2.39834,-1.61405 -5.1697,-2.87331 -8.32436,-3.43186 -2.93523,-0.51727 -5.79606,-0.39535 -8.34108,-0.057 -2.54582,0.33846 -5.04604,0.93322 -7.28866,1.52503 -4.94012,1.30364 -8.24034,2.40721 -11.54405,2.81647 -1.14011,0.15042 -2.12813,0.10052 -3.0207,-0.0947 -0.90167,-0.19719 -1.83325,-0.5706 -2.82124,-1.19304 -2.03864,-1.28436 -4.2321,-3.57792 -6.5351,-7.16826 -2.41198,-3.77969 -5.2353,-8.52655 -8.29742,-12.4093 -1.57556,-1.9978 -3.35828,-3.96328 -5.39364,-5.63145 -2.04711,-1.6778 -4.44147,-3.13009 -7.22353,-3.96525 -2.70963,-0.81237 -5.40234,-0.94585 -7.88278,-0.77285 -2.46781,0.17212 -4.88534,0.66046 -7.10088,1.21037 -4.49178,1.11489 -8.6187,2.53373 -11.94521,3.1679 -2.76423,0.53862 -5.09757,0.22342 -7.26536,-0.84089 -2.27006,-1.11452 -4.65784,-3.20481 -7.08605,-6.65038 -2.59971,-3.70032 -5.26231,-8.15219 -8.29294,-12.24947 -1.50266,-2.03152 -3.14511,-4.03195 -4.95714,-5.76879 -1.81069,-1.73557 -3.89524,-3.30967 -6.30103,-4.36541 -2.42796,-1.06541 -4.90381,-1.47746 -7.2851,-1.51451 -0.23059,-0.004 -0.46036,-0.004 -0.68919,-4.9e-4 -2.13488,0.0296 -4.22115,0.34418 -6.15673,0.75477 -4.48692,0.95182 -8.55135,2.4222 -12.05125,3.29733 -3.24344,0.81844 -5.95997,0.68267 -8.3544,-0.18237 -2.57242,-0.92933 -5.12714,-2.83223 -7.63457,-6.02239 -3.63385,-4.54667 -7.14486,-10.38284 -10.87714,-15.01722 -0.15442,-0.19174 -0.30999,-0.38255 -0.46671,-0.57241 -0.1479,-0.0925 -0.29648,-0.18395 -0.44571,-0.27431 -3.05445,-1.84941 -6.19591,-3.125 -9.56392,-3.32945 -2.42365,-0.19999 -4.78663,0.20056 -6.9818,0.87824 -2.27824,0.70332 -4.50739,1.74685 -6.60431,2.89685 -4.27392,2.3439 -8.89823,5.66874 -12.56812,8.17879 -4.06805,2.78528 -7.56646,4.42912 -10.65606,5.09512 -1.62867,0.35108 -3.13627,0.42842 -4.55109,0.2595 -1.47249,-0.1758 -2.89714,-0.62461 -4.29562,-1.37109 -3.20313,-1.71371 -6.52902,-4.53073 -9.88892,-7.06991 -1.78515,-1.34909 -3.59976,-2.63704 -5.47533,-3.70214 -1.93857,-1.10087 -3.96638,-1.97727 -6.099,-2.4184 -2.2546,-0.46681 -4.47807,-0.36534 -6.60733,0.0837 -2.17285,0.45826 -4.293957,1.28817 -6.323204,2.30273 -4.102321,2.05104 -8.205069,5.05566 -11.999031,7.91359 -3.757922,2.83162 -7.307104,4.98356 -10.684823,6.06766 -1.649135,0.5293 -3.245723,0.79994 -4.800585,0.77446 -1.514627,-0.0248 -3.037726,-0.331 -4.583055,-1.00652 -3.265344,-1.42777 -6.499552,-3.9393 -10.421674,-6.88839 -1.775224,-1.33482 -3.695062,-2.75384 -5.641443,-3.97814 -1.877731,-1.18112 -3.908896,-2.26513 -6.0399,-2.962 -2.131596,-0.69708 -4.301136,-0.91542 -6.494826,-0.70901 -2.096629,0.19728 -4.176337,0.77836 -6.239798,1.6543 -3.880069,1.64709 -7.692544,4.32903 -11.559834,7.50812 z"
       style="opacity:0.75;fill:#0055d4;fill-rule:nonzero;stroke:none;stroke-width:4.38155079;stroke-miterlimit:4;stroke-dasharray:none"
       inkscape:connector-curvature="0"
       inkscape:path-effect="#path-effect6763;#path-effect50"
       inkscape:original-d="m 19.85122,135.13922 c 9.458588,-5.78421 18.917175,-10.19223 28.375763,-7.57152 9.458588,2.62072 18.917175,11.04167 28.375763,14.44631 9.458588,3.40465 18.917175,0.16661 28.375764,-5.54545 9.45859,-5.71207 18.91717,-11.19295 28.37576,-9.41114 9.45859,1.7818 18.91718,9.99636 28.37577,14.09059 9.45858,4.09423 18.91717,2.11643 28.37576,-3.38285 9.45859,-5.49928 18.91717,-11.91805 28.37576,-11.01903 9.45859,0.89901 18.91718,8.70493 28.37576,13.38792 9.45859,4.68299 18.91718,4.01413 28.37577,-1.13695 9.45858,-5.15108 18.91717,-12.34969 28.37576,-12.35559 9.45859,-0.006 18.91718,7.19914 28.37576,12.35559 9.45859,5.15645 18.91718,5.813 28.37577,1.13695 9.45858,-4.67605 18.91717,-12.47724 28.37576,-13.38792 9.45859,-0.91068 18.91717,5.5161 28.37576,11.01903 9.45859,5.50293 18.91718,7.46872 28.37576,3.38285 9.45859,-4.08587 18.91718,-12.29756 28.37577,-14.09059 9.45859,-1.79304 18.91717,3.69722 28.37576,9.41114 9.45859,5.71391 18.91718,8.94055 28.37576,5.54545 9.45859,-3.39509 18.91718,-11.81507 28.37577,-14.44631 9.45858,-2.63123 18.91717,1.78731 28.37576,7.57152" />
    <ellipse
       style="opacity:0.622;fill:#ffffff;fill-opacity:1;stroke:#000000;stroke-width:6.21739626;stroke-miterlimit:4;stroke-dasharray:none;stroke-opacity:0;filter:url(#filter8539)"
       id="path6765"
       cx="20.880398"
       cy="136.02405"
       rx="22.636303"
       ry="19.990469" />
    <ellipse
       ry="19.990469"
       rx="22.636303"
       cy="125.44071"
       cx="169.04707"
       id="ellipse8543"
       style="opacity:0.618;fill:#ffffff;fill-opacity:1;stroke:#000000;stroke-width:6.21739626;stroke-miterlimit:4;stroke-dasharray:none;stroke-opacity:0;filter:url(#filter8539)"
       transform="matrix(1.0651963,0,0,1.1600172,-13.105671,-21.179358)" />
    <path
       style="fill:#edfeff;stroke:#000000;stroke-width:0.26458332px;stroke-linecap:butt;stroke-linejoin:miter;stroke-opacity:1;fill-opacity:1;opacity:0.5;filter:url(#filter1184)"
       d="M 93.360215,3.7517128 245.54951,267.86586 259.58029,259.57606 114.90476,8.9906921 Z"
       id="path878"
       inkscape:connector-curvature="0" />
    <path
       style="fill:#edfeff;stroke:#000000;stroke-width:0.26458332px;stroke-linecap:butt;stroke-linejoin:miter;stroke-opacity:1;filter:url(#filter1208);opacity:0.5;fill-opacity:1"
       d="m -58.829087,267.86586 29.058316,-8.2898 L 114.90476,8.9906921 93.360215,3.7517128 Z"
       id="path1186"
       inkscape:connector-curvature="0" />
    <circle
       style="opacity:1;fill:#000000;fill-opacity:0;stroke:#ffffff;stroke-width:2.165;stroke-miterlimit:4;stroke-dasharray:none"
       id="path1229"
       cx="397.53647"
       cy="267.80133"
       r="1.795387" />
    <circle
       r="1.795387"
       cy="258.80554"
       cx="397.53647"
       id="circle1231"
       style="opacity:1;fill:#000000;fill-opacity:0;stroke:#ffffff;stroke-width:2.16499996;stroke-miterlimit:4;stroke-dasharray:none" />
    <circle
       style="opacity:1;fill:#000000;fill-opacity:0;stroke:#ffffff;stroke-width:2.16499996;stroke-miterlimit:4;stroke-dasharray:none"
       id="circle1233"
       cx="433.51971"
       cy="249.80968"
       r="1.795387" />
    <circle
       r="1.795387"
       cy="249.28052"
       cx="443.04468"
       id="circle1235"
       style="opacity:1;fill:#000000;fill-opacity:0;stroke:#ffffff;stroke-width:2.16499996;stroke-miterlimit:4;stroke-dasharray:none" />
    <circle
       style="opacity:1;fill:#000000;fill-opacity:0;stroke:#ffffff;stroke-width:2.16499996;stroke-miterlimit:4;stroke-dasharray:none"
       id="circle1237"
       cx="473.20718"
       cy="236.0513"
       r="1.795387" />
    <circle
       r="1.795387"
       cy="224.40964"
       cx="473.20718"
       id="circle1239"
       style="opacity:1;fill:#000000;fill-opacity:0;stroke:#ffffff;stroke-width:2.16499996;stroke-miterlimit:4;stroke-dasharray:none" />
    <circle
       style="opacity:1;fill:#000000;fill-opacity:0;stroke:#ffffff;stroke-width:2.16499996;stroke-miterlimit:4;stroke-dasharray:none"
       id="circle1241"
       cx="478.49884"
       cy="204.30127"
       r="1.795387" />
    <circle
       r="1.795387"
       cy="199.0096"
       cx="489.08215"
       id="circle1243"
       style="opacity:1;fill:#000000;fill-opacity:0;stroke:#ffffff;stroke-width:2.16499996;stroke-miterlimit:4;stroke-dasharray:none" />
    <circle
       style="opacity:1;fill:#000000;fill-opacity:0;stroke:#ffffff;stroke-width:2.16499996;stroke-miterlimit:4;stroke-dasharray:none"
       id="circle1245"
       cx="504.95712"
       cy="177.84291"
       r="1.795387" />
    <circle
       r="1.795387"
       cy="170.4346"
       cx="515.01129"
       id="circle1247"
       style="opacity:1;fill:#000000;fill-opacity:0;stroke:#ffffff;stroke-width:2.16499996;stroke-miterlimit:4;stroke-dasharray:none" />
    <circle
       style="opacity:1;fill:#000000;fill-opacity:0;stroke:#ffffff;stroke-width:2.16499996;stroke-miterlimit:4;stroke-dasharray:none"
       id="circle1249"
       cx="529.29889"
       cy="148.20959"
       r="1.795387" />
    <circle
       r="1.795387"
       cy="138.68457"
       cx="525.59467"
       id="circle1251"
       style="opacity:1;fill:#000000;fill-opacity:0;stroke:#ffffff;stroke-width:2.16499996;stroke-miterlimit:4;stroke-dasharray:none" />
    <circle
       style="opacity:1;fill:#000000;fill-opacity:0;stroke:#ffffff;stroke-width:2.16499996;stroke-miterlimit:4;stroke-dasharray:none"
       id="circle1253"
       cx="541.46979"
       cy="123.33872"
       r="1.795387" />
    <circle
       r="1.795387"
       cy="112.75541"
       cx="535.64893"
       id="circle1255"
       style="opacity:1;fill:#000000;fill-opacity:0;stroke:#ffffff;stroke-width:2.16499996;stroke-miterlimit:4;stroke-dasharray:none" />
    <g
       id="g1275"
       style="stroke:#ff0000;stroke-width:1;stroke-linecap:butt;stroke-linejoin:round;stroke-miterlimit:4;stroke-dasharray:none;stroke-opacity:1"
       transform="matrix(1.0205447,0,0,0.78022253,-9.0452934,56.69932)">
      <path
         inkscape:connector-curvature="0"
         id="path1269"
         d="m 439.86979,257.87946 0.18899,7.08707 c 0,0 0.75597,1.60639 1.51191,1.03941"
         style="fill:none;stroke:#ff0000;stroke-width:1;stroke-linecap:butt;stroke-linejoin:round;stroke-miterlimit:4;stroke-dasharray:none;stroke-opacity:1" />
      <path
         inkscape:connector-curvature="0"
         id="path1271"
         d="m 440.05878,264.96653 c 0,0 -0.53404,1.36429 -1.1688,1.06362"
         style="fill:none;stroke:#ff0000;stroke-width:1;stroke-linecap:butt;stroke-linejoin:round;stroke-miterlimit:4;stroke-dasharray:none;stroke-opacity:1" />
    </g>
    <g
       transform="matrix(-0.01470972,-1.0204387,0.78014148,-0.01124582,211.56319,714.67601)"
       style="stroke:#ff0000;stroke-width:1;stroke-linecap:butt;stroke-linejoin:round;stroke-miterlimit:4;stroke-dasharray:none;stroke-opacity:1"
       id="g1281">
      <path
         style="fill:none;stroke:#ff0000;stroke-width:1;stroke-linecap:butt;stroke-linejoin:round;stroke-miterlimit:4;stroke-dasharray:none;stroke-opacity:1"
         d="m 439.86979,257.87946 0.18899,7.08707 c 0,0 0.75597,1.60639 1.51191,1.03941"
         id="path1277"
         inkscape:connector-curvature="0" />
      <path
         style="fill:none;stroke:#ff0000;stroke-width:1;stroke-linecap:butt;stroke-linejoin:round;stroke-miterlimit:4;stroke-dasharray:none;stroke-opacity:1"
         d="m 440.05878,264.96653 c 0,0 -0.53404,1.36429 -1.1688,1.06362"
         id="path1279"
         inkscape:connector-curvature="0" />
    </g>
    <g
       id="g1287"
       style="stroke:#ff0000;stroke-width:1;stroke-linecap:butt;stroke-linejoin:round;stroke-miterlimit:4;stroke-dasharray:none;stroke-opacity:1"
       transform="matrix(-0.01470972,-1.0204387,0.78014148,-0.01124582,288.29239,680.80934)">
      <path
         inkscape:connector-curvature="0"
         id="path1283"
         d="m 439.86979,257.87946 0.18899,7.08707 c 0,0 0.75597,1.60639 1.51191,1.03941"
         style="fill:none;stroke:#ff0000;stroke-width:1;stroke-linecap:butt;stroke-linejoin:round;stroke-miterlimit:4;stroke-dasharray:none;stroke-opacity:1" />
      <path
         inkscape:connector-curvature="0"
         id="path1285"
         d="m 440.05878,264.96653 c 0,0 -0.53404,1.36429 -1.1688,1.06362"
         style="fill:none;stroke:#ff0000;stroke-width:1;stroke-linecap:butt;stroke-linejoin:round;stroke-miterlimit:4;stroke-dasharray:none;stroke-opacity:1" />
    </g>
    <g
       transform="matrix(0.84229735,-0.57623493,0.4405407,0.6439496,6.5377782,299.88074)"
       style="stroke:#ff0000;stroke-width:1;stroke-linecap:butt;stroke-linejoin:round;stroke-miterlimit:4;stroke-dasharray:none;stroke-opacity:1"
       id="g1293"
       inkscape:transform-center-x="3.0804909"
       inkscape:transform-center-y="-0.058860482">
      <path
         style="fill:none;stroke:#ff0000;stroke-width:1;stroke-linecap:butt;stroke-linejoin:round;stroke-miterlimit:4;stroke-dasharray:none;stroke-opacity:1"
         d="m 439.86979,257.87946 0.18899,7.08707 c 0,0 0.75597,1.60639 1.51191,1.03941"
         id="path1289"
         inkscape:connector-curvature="0" />
      <path
         style="fill:none;stroke:#ff0000;stroke-width:1;stroke-linecap:butt;stroke-linejoin:round;stroke-miterlimit:4;stroke-dasharray:none;stroke-opacity:1"
         d="m 440.05878,264.96653 c 0,0 -0.53404,1.36429 -1.1688,1.06362"
         id="path1291"
         inkscape:connector-curvature="0" />
    </g>
    <g
       inkscape:transform-center-y="-0.058860482"
       inkscape:transform-center-x="3.0804909"
       id="g1299"
       style="stroke:#ff0000;stroke-width:1;stroke-linecap:butt;stroke-linejoin:round;stroke-miterlimit:4;stroke-dasharray:none;stroke-opacity:1"
       transform="matrix(0.84229735,-0.57623493,0.4405407,0.6439496,32.996113,268.13072)">
      <path
         inkscape:connector-curvature="0"
         id="path1295"
         d="m 439.86979,257.87946 0.18899,7.08707 c 0,0 0.75597,1.60639 1.51191,1.03941"
         style="fill:none;stroke:#ff0000;stroke-width:1;stroke-linecap:butt;stroke-linejoin:round;stroke-miterlimit:4;stroke-dasharray:none;stroke-opacity:1" />
      <path
         inkscape:connector-curvature="0"
         id="path1297"
         d="m 440.05878,264.96653 c 0,0 -0.53404,1.36429 -1.1688,1.06362"
         style="fill:none;stroke:#ff0000;stroke-width:1;stroke-linecap:butt;stroke-linejoin:round;stroke-miterlimit:4;stroke-dasharray:none;stroke-opacity:1" />
    </g>
    <g
       transform="matrix(-0.12892639,-1.0123683,0.7739715,-0.09856627,394.58776,611.16155)"
       style="stroke:#ff0000;stroke-width:1;stroke-linecap:butt;stroke-linejoin:round;stroke-miterlimit:4;stroke-dasharray:none;stroke-opacity:1"
       id="g1305"
       inkscape:transform-center-x="1.9618586"
       inkscape:transform-center-y="2.4536126">
      <path
         style="fill:none;stroke:#ff0000;stroke-width:1;stroke-linecap:butt;stroke-linejoin:round;stroke-miterlimit:4;stroke-dasharray:none;stroke-opacity:1"
         d="m 439.86979,257.87946 0.18899,7.08707 c 0,0 0.75597,1.60639 1.51191,1.03941"
         id="path1301"
         inkscape:connector-curvature="0" />
      <path
         style="fill:none;stroke:#ff0000;stroke-width:1;stroke-linecap:butt;stroke-linejoin:round;stroke-miterlimit:4;stroke-dasharray:none;stroke-opacity:1"
         d="m 440.05878,264.96653 c 0,0 -0.53404,1.36429 -1.1688,1.06362"
         id="path1303"
         inkscape:connector-curvature="0" />
    </g>
    <g
       inkscape:transform-center-y="2.8431041"
       inkscape:transform-center-x="0.91930731"
       id="g1311"
       style="stroke:#ff0000;stroke-width:1;stroke-linecap:butt;stroke-linejoin:round;stroke-miterlimit:4;stroke-dasharray:none;stroke-opacity:1"
       transform="matrix(-0.39136009,-0.94252261,0.72057337,-0.29920097,534.84843,605.89027)">
      <path
         inkscape:connector-curvature="0"
         id="path1307"
         d="m 439.86979,257.87946 0.18899,7.08707 c 0,0 0.75597,1.60639 1.51191,1.03941"
         style="fill:none;stroke:#ff0000;stroke-width:1;stroke-linecap:butt;stroke-linejoin:round;stroke-miterlimit:4;stroke-dasharray:none;stroke-opacity:1" />
      <path
         inkscape:connector-curvature="0"
         id="path1309"
         d="m 440.05878,264.96653 c 0,0 -0.53404,1.36429 -1.1688,1.06362"
         style="fill:none;stroke:#ff0000;stroke-width:1;stroke-linecap:butt;stroke-linejoin:round;stroke-miterlimit:4;stroke-dasharray:none;stroke-opacity:1" />
    </g>
    <flowRoot
       xml:space="preserve"
       id="flowRoot1351"
       style="font-style:normal;font-weight:normal;font-size:40px;line-height:1.25;font-family:sans-serif;letter-spacing:0px;word-spacing:0px;fill:#000000;fill-opacity:1;stroke:none"
       transform="matrix(0.9688944,0,0,0.9688944,-1799.2624,33.434716)"><flowRegion
         id="flowRegion1353"><rect
           id="rect1355"
           width="1480.7904"
           height="228.10796"
           x="2448.6099"
           y="27.514311" /></flowRegion><flowPara
         id="flowPara1357"
         style="font-style:normal;font-variant:normal;font-weight:normal;font-stretch:normal;font-size:192px;font-family:Raleway;-inkscape-font-specification:Raleway;fill:#ffffff">SpectroscoPyx</flowPara></flowRoot>  </g>
</svg>
